<svg t="1618624020343" class="icon" viewBox="0 0 1024 1024" version="1.1" xmlns="http://www.w3.org/2000/svg" p-id="1682" width="32" height="32"><path d="M873.441882 413.033412L933.647059 590.064941a29.816471 29.816471 0 0 1-30.117647 29.515294h-271.058824L512 722.823529l-135.529412-103.273411H120.410353a29.816471 29.816471 0 0 1-30.087529-29.515294l60.205176-177.001412c4.367059-15.269647 13.492706-29.515294 30.117647-29.515294h82.823529c12.498824 0 22.588235 9.938824 22.588236 22.13647a22.377412 22.377412 0 0 1-22.588236 22.166588H210.823529c-8.342588 0-12.589176 6.656-15.058823 14.697412l-45.206588 118.061177c0 8.131765 6.746353 14.757647 15.058823 14.757647H391.529412l120.470588 88.485647 105.411765-88.515765h240.941176c8.342588 0 15.088941-6.625882 15.088941-14.757647l-45.17647-118.031059c-2.108235-7.529412-6.746353-14.697412-15.088941-14.697412h-52.705883a22.377412 22.377412 0 0 1-22.588235-22.166588c0-12.227765 10.119529-22.106353 22.588235-22.106353H843.294118c16.624941 0 25.690353 14.064941 30.147764 29.515294zM512 575.307294c-31.503059 0-225.882353-231.845647-225.882353-354.032941S387.222588 0 512 0c124.747294 0 225.882353 99.087059 225.882353 221.274353S543.533176 575.307294 512 575.307294zM512 44.272941c-99.809882 0-180.705882 79.269647-180.705882 177.001412 0 97.761882 164.683294 295.002353 180.705882 295.002353s180.705882-197.240471 180.705882-295.002353c0-97.731765-80.926118-177.001412-180.705882-177.001412z m90.352941 177.001412c0 48.911059-40.417882 88.515765-90.352941 88.515765s-90.352941-39.604706-90.352941-88.515765c0-48.880941 40.417882-88.515765 90.352941-88.515765s90.352941 39.634824 90.352941 88.515765z m-135.529412 0c0 24.455529 20.208941 44.272941 45.176471 44.272941s45.176471-19.817412 45.176471-44.272941c0-24.395294-20.208941-44.242824-45.176471-44.242824s-45.176471 19.817412-45.176471 44.242824zM73.968941 786.672941c10.029176 13.191529 19.576471 27.166118 28.521412 41.893647l-15.329882 7.469177h52.073411c9.155765-13.884235 17.468235-30.960941 24.847059-51.2l26.955294 7.228235a240.007529 240.007529 0 0 1-20.871529 43.971765h48.880941v26.202353H133.722353v6.204235a255.638588 255.638588 0 0 1-3.704471 33.430588h104.387765v26.202353H143.239529c12.649412 29.515294 45.266824 53.007059 97.761883 70.475294L224.617412 1024c-54.272-21.594353-89.238588-50.055529-104.899765-85.383529a153.479529 153.479529 0 0 1-16.655059 29.575529c-17.980235 23.160471-47.284706 40.899765-88.003764 53.248l-15.058824-23.401412c40.357647-12.709647 67.764706-28.822588 82.191059-48.338823 4.758588-7.047529 8.613647-14.245647 11.625412-21.624471H5.029647v-26.202353h96.707765c2.108235-10.300235 3.433412-21.443765 3.975529-33.430588v-6.174118H20.088471v-26.23247h54.964705a296.237176 296.237176 0 0 0-26.443294-37.556706l25.389177-11.806118z m241.242353 106.947765v-26.202353h75.866353v-33.189647h27.467294V867.388235h33.822118v26.232471h-33.822118v84.630588c0 18.672941-8.884706 28.009412-26.684235 28.009412h-27.738353l-6.324706-25.449412c9.848471 1.204706 17.950118 1.807059 24.274824 1.807059 6.023529 0 9.005176-3.704471 9.005176-11.083294V922.202353c-16.203294 22.106353-39.393882 42.255059-69.511529 60.416l-14.787765-23.130353c38.761412-19.877647 65.355294-41.833412 79.811765-65.837176h-71.378824z m126.072471 127.819294l-7.408941-25.208471 23.009882 0.783059c6.686118 0 10.029176-4.126118 10.029176-12.348235v-163.809882H368.64v-24.696471h125.259294v195.704471c0 19.696941-10.480941 29.575529-31.442823 29.575529h-21.142589zM273.769412 828.325647h26.955294v195.403294H273.769412v-195.403294zM320.542118 783.058824c11.806118 13.191529 22.467765 28.310588 31.984941 45.266823l-24.847059 12.589177a287.563294 287.563294 0 0 0-32.225882-47.043765l25.088-10.812235z m442.639058 41.923764c0 57.765647-1.505882 93.003294-4.517647 105.682824-3.162353 12.167529-15.299765 18.251294-36.442353 18.251294h-1.325176l-8.432941-27.256471c7.740235 0.331294 12.830118 0.512 15.299765 0.512 4.065882 0 6.625882-2.740706 7.68-8.222117 0.692706-5.842824 1.144471-23.823059 1.295058-54.000942l-28.250353 7.710118v100.532706h-26.172235v-93.334588l-25.118118 6.927059v99.267764c0 8.583529 4.156235 12.860235 12.438589 12.860236h63.668706c3.704471 0 6.625882-1.807059 8.734117-5.421177 2.288941-3.734588 3.794824-14.878118 4.517647-33.430588l25.6 8.011294c-2.108235 27.075765-5.812706 43.188706-11.083294 48.338824-5.481412 4.969412-13.040941 7.439059-22.738823 7.439058h-77.161412c-20.449882 0-30.659765-10.872471-30.659765-32.647529v-97.189647l-15.329882 4.096v-26.202353l15.36-4.397177v-50.657882h26.654117v43.218824l25.118118-7.228236v-62.223058h26.172235v54.784l54.693647-15.420236z m-147.998117 141.161412c-27.105882 11.836235-54.784 21.413647-82.974118 28.792471l-7.137882-27.256471c11.625412-2.228706 22.287059-4.608 31.984941-7.198118v-83.305411h-28.280471v-26.232471h28.280471V786.672941h27.497412v64.271059h26.413176v26.202353h-26.413176v74.601412c10.721882-3.764706 20.961882-7.890824 30.629647-12.348236v26.744471zM1024 794.383059v229.104941h-26.955294V1014.964706H827.934118v8.493176h-26.955294v-229.104941H1024z m-196.065882 196.969412h169.110588V817.995294H827.934118v173.327059z m79.510588-167.664942c-2.108235 4.818824-3.764706 8.312471-4.99953 10.541177H969.788235v17.769412c-6.144 11.806118-16.022588 22.588235-29.575529 32.37647 15.841882 6.505412 33.912471 11.986824 54.151529 16.444236l-14.275764 20.058352c-23.943529-6.174118-44.815059-13.854118-62.614589-23.130352-19.907765 9.758118-44.303059 17.739294-73.185882 23.913411l-11.896471-21.353411c24.816941-3.915294 45.778824-9.155765 62.885647-15.661177a192.692706 192.692706 0 0 1-20.08847-16.203294c-6.866824 5.993412-14.697412 11.655529-23.491765 16.956235l-15.058823-19.546353c22.889412-12.498824 38.279529-27.587765 46.230588-45.236706l24.576 3.072z m34.906353 29.57553h-52.585412c-0.361412 0.331294-0.542118 0.602353-0.542118 0.752941 8.824471 7.529412 18.401882 14.155294 28.822589 19.817412 10.029176-6.174118 18.130824-13.040941 24.304941-20.570353z m-74.782118 89.991529c35.056941 6.023529 68.367059 14.305882 99.870118 24.937412l-8.975059 21.865412a656.624941 656.624941 0 0 0-101.737412-26.985412l10.842353-19.817412z m26.413177-34.454588c21.835294 6.023529 41.411765 13.040941 58.669176 21.082353l-12.679529 19.034353a308.404706 308.404706 0 0 0-58.127059-22.618353l12.137412-17.498353z" p-id="1683" fill="rgb(24, 117, 179)"></path></svg>