<svg t="1616990304930" class="icon" viewBox="0 0 1024 1024" version="1.1" xmlns="http://www.w3.org/2000/svg" p-id="25001" width="32" height="32"><path d="M909.85 910.3h-795.7c-19.97 0-36.17-16.19-36.17-36.17V114.15c0-19.98 16.19-36.17 36.17-36.17h795.7c19.98 0 36.17 16.19 36.17 36.17v759.98c0 19.98-16.2 36.17-36.17 36.17z" fill="#B9E6FE" p-id="25002"></path><path d="M875.89 579.54c26.29-134.05 26.29-268.11 0-402.16-3.65-18.28-21.99-34.63-40.24-36.31-215.77-19.27-431.53-19.27-647.29 0-18.25 1.68-36.59 18.03-40.24 36.31-26.29 134.05-26.29 268.11 0 402.16 3.65 18.27 21.99 34.64 40.24 36.31 215.76 19.27 431.53 19.27 647.29 0 18.25-1.67 36.58-18.02 40.24-36.31z" fill="#296CFB" p-id="25003"></path><path d="M168.4 910.3h142.25v35.72H168.4zM713.35 910.3h142.24v35.72H713.35z" fill="#61D1FF" p-id="25004"></path><path d="M793.86 772.01m-61.74 0a61.74 61.74 0 1 0 123.48 0 61.74 61.74 0 1 0-123.48 0Z" fill="#296CFB" p-id="25005"></path><path d="M766.47 377.05l-24.09 45.58-63.04-113.45c-3.28-5.88-9.07-9.39-16.32-9.21-6.73 0.24-12.77 4.25-15.6 10.36l-85.17 182.9-33.67-296.85c-0.93-8.19-7.32-14.7-15.5-15.76-8.25-1.1-16.04 3.59-19.02 11.29L411 405.64l-38.98-105.82a17.947 17.947 0 0 0-13.15-11.35c-6.02-1.28-12.31 0.66-16.6 5.11L271.1 367.5H128.66c-0.13 11.95 0.05 23.91 0.34 35.86h149.73c4.87 0 9.54-1.99 12.92-5.49l56.61-58.8 45.47 123.43c2.58 7 9.21 11.66 16.67 11.73h0.16c7.39 0 14.02-4.53 16.7-11.43l73.89-190.14 32.66 287.91c0.89 7.98 7 14.38 14.92 15.67 0.98 0.16 1.94 0.24 2.89 0.24 6.88 0 13.27-3.96 16.25-10.36l97.2-208.77 62.02 111.63c3.17 5.69 9.16 9.22 15.67 9.22h0.19c6.57-0.07 12.59-3.74 15.65-9.55l34.51-65.28h101.87c0.29-11.95 0.47-23.91 0.34-35.86h-113a17.866 17.866 0 0 0-15.85 9.54z" fill="#FFFFFF" p-id="25006"></path><path d="M740.5 825.37c-6.04-6.04-6.04-15.84 0-21.88l84.85-84.85c6.04-6.04 15.84-6.04 21.88 0 6.04 6.04 6.04 15.84 0 21.88l-84.85 84.85c-6.05 6.05-15.84 6.05-21.88 0z" fill="#E9F8FF" p-id="25007"></path><path d="M165.06 793.24m-36.67 0a36.67 36.67 0 1 0 73.34 0 36.67 36.67 0 1 0-73.34 0Z" fill="#FFFFFF" p-id="25008"></path><path d="M276.2 793.24m-36.67 0a36.67 36.67 0 1 0 73.34 0 36.67 36.67 0 1 0-73.34 0Z" fill="#FDCB0D" p-id="25009"></path><path d="M387.33 793.24m-36.67 0a36.67 36.67 0 1 0 73.34 0 36.67 36.67 0 1 0-73.34 0Z" fill="#A2B7FF" p-id="25010"></path></svg>