<?xml version="1.0" standalone="no"?><!DOCTYPE svg PUBLIC "-//W3C//DTD SVG 1.1//EN" "http://www.w3.org/Graphics/SVG/1.1/DTD/svg11.dtd"><svg t="1617944564201" class="icon" viewBox="0 0 1024 1024" version="1.1" xmlns="http://www.w3.org/2000/svg" p-id="18359" width="16" height="16" xmlns:xlink="http://www.w3.org/1999/xlink"><defs><style type="text/css"></style></defs><path d="M716.8 34.133333a273.066667 273.066667 0 0 1 273.066667 273.066667v409.6a273.066667 273.066667 0 0 1-273.066667 273.066667h-409.6a273.066667 273.066667 0 0 1-273.066667-273.066667v-409.6a273.066667 273.066667 0 0 1 273.066667-273.066667h409.6z m0 68.266667h-409.6a204.8 204.8 0 0 0-204.458667 192.785067L102.4 307.2v409.6a204.8 204.8 0 0 0 192.785067 204.458667l12.014933 0.341333h409.6a204.8 204.8 0 0 0 204.458667-192.785067l0.341333-12.014933v-409.6a204.8 204.8 0 0 0-192.785067-204.458667L716.8 102.4zM409.122133 311.296l232.311467 178.312533a33.655467 33.655467 0 0 1 0 51.677867l-232.311467 178.3808c-14.9504 11.4688-33.655467-2.935467-33.655466-25.941333V337.1008c0-23.005867 18.773333-37.341867 33.655466-25.873067z" fill="rgb(24, 117, 179)" p-id="18360"></path></svg>