<svg t="1616928441055" class="icon" viewBox="0 0 1024 1024" version="1.1" xmlns="http://www.w3.org/2000/svg" p-id="7510" width="32" height="32"><path d="M512 512m-512 0a512 512 0 1 0 1024 0 512 512 0 1 0-1024 0Z" fill="#6F8BFF" p-id="7511"></path><path d="M161.060571 394.800762c-19.321905 7.228952-19.870476 18.358857-0.560761 25.587809l310.80838 107.885715c19.321905 7.228952 15.457524 7.228952 34.779429 0l162.864762-55.612953L486.765714 399.238095c-7.728762-3.34019-11.580952-12.239238-8.825904-20.577524l0.548571-0.548571a16.359619 16.359619 0 0 1 20.431238-8.899048l215.296 87.856762c1.097143 0.560762 1.657905 1.121524 2.206476 1.670096 28.16 22.247619 36.437333 56.173714 37.546667 94.537142-9.386667 6.119619-16.018286 16.700952-16.018286 28.928 0 11.678476 5.522286 21.686857 14.360381 27.794286-4.973714 71.192381-12.702476 142.933333 50.224762 170.179048 17.127619-5.558857 28.720762-11.678476 50.797714-28.91581-44.714667-53.394286-59.611429-98.986667-65.145904-138.483809a34.352762 34.352762 0 0 0 18.773333-30.573715 34.352762 34.352762 0 0 0-22.076952-32.256c-0.560762-38.936381-2.767238-72.850286-35.888762-105.106285l75.081142-25.58781c19.321905-7.228952 19.870476-18.346667 0.548572-25.575619l-315.769905-107.885714c-19.321905-7.228952-15.457524-7.228952-34.779428 0l-313.014858 108.995047z m347.440762 171.849143c-19.260952 7.265524-15.420952 7.265524-34.681904 0L271.725714 496.213333v111.798857c0 9.508571 7.168 19.565714 16.518096 27.392 127.207619 70.436571 285.781333 70.997333 399.762285 6.704762 6.607238-2.230857 11.02019-10.057143 13.775238-18.44419a56.405333 56.405333 0 0 1-12.678095-35.779048c0-15.09181 5.510095-29.062095 15.969524-38.570666v-50.870858l-196.571429 68.205715z" fill="#FFFFFF" fill-opacity=".84" p-id="7512"></path></svg>