<svg t="1618920796880" class="icon" viewBox="0 0 1024 1024" version="1.1" xmlns="http://www.w3.org/2000/svg" p-id="2726" width="32" height="32"><path d="M513.575385 330.830769l-31.507693 14.178462-47.261538-47.261539 14.178461-18.904615zM513.575385 330.830769l31.507692 14.178462 47.261538-47.261539-14.178461-18.904615z" fill="#FFFFFF" p-id="2727"></path><path d="M575.015385 63.015385s63.015385-9.452308 47.261538 94.523077l-31.507692-47.261539s-37.809231 15.753846-78.769231 15.753846-78.769231-15.753846-78.769231-15.753846l-31.507692 47.261539c-15.753846-173.292308 189.046154-138.633846 189.046154-138.633847-29.932308 11.027692-15.753846 44.110769-15.753846 44.11077z" fill="#94C1FF" p-id="2728"></path><path d="M575.015385 63.015385s39.384615-7.876923 34.658461 74.043077l14.178462 20.48c15.753846-103.975385-48.836923-94.523077-48.836923-94.523077z" fill="#5C9EFF" p-id="2729"></path><path d="M559.261538 15.753846c-56.713846-1.575385-168.566154 11.027692-157.538461 141.784616l14.178461-22.055385c3.150769-100.824615 88.221538-118.153846 143.36-119.729231z" fill="#D7E9FF" p-id="2730"></path><path d="M623.852308 173.292308c0 75.618462-67.741538 143.36-110.276923 143.36s-110.276923-69.316923-110.276923-143.36v-15.753846l31.507692-47.261539s37.809231 15.753846 78.769231 15.753846 78.769231-15.753846 78.76923-15.753846l31.507693 47.261539v15.753846z" fill="#D7E9FF" p-id="2731"></path><path d="M623.852308 155.963077l-31.507693-47.261539s-11.027692 4.726154-25.206153 7.876924l25.206153 39.384615v15.753846c0 66.166154-53.563077 127.606154-94.523077 141.784615 4.726154 1.575385 11.027692 3.150769 15.753847 3.15077 42.535385 0 110.276923-69.316923 110.276923-143.36V155.963077z" fill="#94C1FF" p-id="2732"></path><path d="M434.806154 173.292308v-15.753846l25.206154-39.384616c-15.753846-4.726154-25.206154-7.876923-25.206154-7.876923l-31.507692 47.261539v15.753846c0 75.618462 67.741538 143.36 110.276923 143.36 4.726154 0 11.027692-1.575385 15.753846-3.15077-40.96-14.178462-94.523077-75.618462-94.523077-140.20923z" fill="#FFFFFF" p-id="2733"></path><path d="M702.621538 455.286154h-378.092307v-15.753846-51.987693c0-26.781538 12.603077-36.233846 39.384615-45.686153 12.603077-4.726154 36.233846-14.178462 55.138462-22.055385l18.904615-18.904615 44.110769 45.686153 31.507693-15.753846 31.507692 15.753846 44.110769-44.110769 17.329231 17.329231c18.904615 9.452308 42.535385 17.329231 55.138461 23.630769 26.781538 9.452308 39.384615 20.48 39.384616 45.686154v66.166154z" fill="#D7E9FF" p-id="2734"></path><path d="M356.036923 387.544615c0-26.781538 12.603077-36.233846 39.384615-45.686153 12.603077-4.726154 36.233846-14.178462 55.138462-22.055385l3.150769-3.150769-15.753846-15.753846-18.904615 18.904615c-18.904615 9.452308-42.535385 17.329231-55.138462 22.055385-26.781538 9.452308-39.384615 20.48-39.384615 45.686153v67.741539h31.507692v-15.753846-51.987693z" fill="#FFFFFF" p-id="2735"></path><path d="M671.113846 387.544615c0-26.781538-12.603077-36.233846-39.384615-45.686153-12.603077-4.726154-36.233846-14.178462-55.138462-22.055385l-3.150769-3.150769 15.753846-15.753846 18.904616 18.904615c18.904615 9.452308 42.535385 17.329231 55.138461 22.055385 26.781538 9.452308 39.384615 20.48 39.384615 45.686153v67.741539h-31.507692v-15.753846-51.987693z" fill="#94C1FF" p-id="2736"></path><path d="M568.713846 707.347692l-28.356923 26.781539 6.301539 37.809231-33.083077-18.904616-34.658462 18.904616 6.301539-37.809231-26.781539-26.781539 37.809231-6.301538 17.329231-34.658462 15.753846 34.658462z" fill="#FFFFFF" p-id="2737"></path><path d="M513.575385 666.387692l-17.329231 34.658462-37.809231 6.301538 28.356923 26.781539-7.876923 37.809231 34.658462-17.329231 34.658461 17.329231-6.301538-37.809231 28.356923-26.781539-37.809231-6.301538-18.904615-34.658462z m0-37.80923c51.987692 0 94.523077 42.535385 94.523077 94.523076s-42.535385 94.523077-94.523077 94.523077-94.523077-42.535385-94.523077-94.523077 40.96-94.523077 94.523077-94.523076z" fill="#D7E9FF" p-id="2738"></path><path d="M434.806154 723.101538c0-48.836923 37.809231-89.796923 86.646154-94.523076h-7.876923c-51.987692 0-94.523077 42.535385-94.523077 94.523076s42.535385 94.523077 94.523077 94.523077h7.876923c-48.836923-3.150769-86.646154-44.110769-86.646154-94.523077z" fill="#FFFFFF" p-id="2739"></path><path d="M592.344615 723.101538c0 48.836923-37.809231 89.796923-86.646153 94.523077h7.876923c51.987692 0 94.523077-42.535385 94.523077-94.523077s-42.535385-94.523077-94.523077-94.523076h-7.876923c48.836923 4.726154 86.646154 45.686154 86.646153 94.523076z" fill="#94C1FF" p-id="2740"></path><path d="M812.898462 455.286154l-63.015385 141.784615h-47.261539v-63.015384h-378.092307v63.015384h-47.261539l-63.015384-141.784615h488.36923z" fill="#5C9EFF" p-id="2741"></path><path d="M214.252308 455.286154l63.015384 141.784615h15.753846l-63.015384-141.784615z" fill="#94C1FF" p-id="2742"></path><path d="M812.898462 455.286154l-63.015385 141.784615h-15.753846l63.015384-141.784615z" fill="#2287FF" p-id="2743"></path><path d="M387.544615 1006.670769h-94.523077v-31.507692h441.107693v31.507692h-315.076923z" fill="#94C1FF" p-id="2744"></path><path d="M702.621538 597.070769v378.092308h-189.046153v-157.538462c51.987692 0 94.523077-42.535385 94.523077-94.523077s-42.535385-94.523077-94.523077-94.523076v-94.523077h189.046153v63.015384zM513.575385 943.655385v31.507692h-189.046154v-441.107692h189.046154v94.523077c-51.987692 0-94.523077 42.535385-94.523077 94.523076s42.535385 94.523077 94.523077 94.523077v126.03077zM529.329231 455.286154h-31.507693l7.876924-102.4h15.753846z" fill="#5C9EFF" p-id="2745"></path><path d="M499.396923 332.406154h28.356923v22.055384h-28.356923z" fill="#5C9EFF" p-id="2746"></path><path d="M324.529231 534.055385h31.507692v433.230769h-31.507692z" fill="#94C1FF" p-id="2747"></path><path d="M671.113846 534.055385h31.507692v433.230769h-31.507692zM316.652308 518.301538h393.846154v15.753847h-393.846154z" fill="#2287FF" p-id="2748"></path><path d="M293.021538 975.163077h15.753847v31.507692h-15.753847z" fill="#D7E9FF" p-id="2749"></path><path d="M718.375385 975.163077h15.753846v31.507692h-15.753846z" fill="#5C9EFF" p-id="2750"></path><path d="M324.529231 447.409231c-4.726154 0-7.876923-3.150769-7.876923-7.876923v-51.987693c0-31.507692 15.753846-42.535385 44.110769-53.563077l1.575385-1.575384c12.603077-4.726154 34.658462-12.603077 51.987692-22.055385 4.726154-1.575385 7.876923 0 11.027692 3.150769 1.575385 3.150769 0 7.876923-3.150769 11.027693-18.904615 9.452308-40.96 17.329231-53.563077 22.055384l-1.575385 1.575385c-26.781538 9.452308-34.658462 18.904615-34.658461 39.384615v51.987693c0 4.726154-4.726154 7.876923-7.876923 7.876923zM702.621538 447.409231c-4.726154 0-7.876923-3.150769-7.876923-7.876923v-51.987693c0-20.48-7.876923-28.356923-34.658461-39.384615-14.178462-4.726154-36.233846-14.178462-55.138462-23.630769-3.150769-1.575385-6.301538-6.301538-3.150769-11.027693 1.575385-3.150769 6.301538-6.301538 11.027692-3.150769 18.904615 9.452308 40.96 17.329231 53.563077 22.055385 28.356923 11.027692 45.686154 23.630769 45.686154 53.563077v51.987692c-1.575385 6.301538-6.301538 9.452308-9.452308 9.452308zM513.575385 324.529231c-44.110769 0-118.153846-70.892308-118.153847-151.236923 0-4.726154 3.150769-7.876923 7.876924-7.876923s7.876923 3.150769 7.876923 7.876923c0 70.892308 64.590769 135.483077 102.4 135.483077s102.4-66.166154 102.4-135.483077c0-4.726154 3.150769-7.876923 7.876923-7.876923s7.876923 3.150769 7.876923 7.876923c0 80.344615-74.043077 151.236923-118.153846 151.236923zM623.852308 163.84c-3.150769 0-4.726154-1.575385-6.301539-3.150769l-28.356923-42.535385c-12.603077 4.726154-42.535385 14.178462-75.618461 14.178462s-63.015385-9.452308-75.618462-14.178462L409.6 160.689231s0 1.575385-1.575385 1.575384c-1.575385 1.575385-4.726154 3.150769-7.876923 1.575385s-4.726154-3.150769-4.726154-6.301538c-4.726154-48.836923 7.876923-86.646154 34.658462-111.852308C486.793846-6.301538 589.193846 9.452308 593.92 9.452308c3.150769 0 6.301538 3.150769 6.301538 6.301538s-1.575385 6.301538-4.726153 7.876923c-6.301538 3.150769-11.027692 6.301538-12.603077 12.603077-3.150769 6.301538-1.575385 12.603077 0 17.329231 7.876923 0 22.055385 3.150769 34.658461 14.178461 17.329231 17.329231 22.055385 47.261538 15.753846 88.221539 0 3.150769-3.150769 6.301538-6.301538 6.301538l-3.150769 1.575385z m-31.507693-63.015385c3.150769 0 4.726154 1.575385 6.301539 3.15077l18.904615 29.932307c1.575385-25.206154-3.150769-44.110769-14.178461-53.563077-11.027692-11.027692-26.781538-9.452308-26.781539-9.452307-3.150769 0-6.301538-1.575385-7.876923-4.726154C567.138462 64.590769 560.836923 47.261538 567.138462 31.507692c1.575385-3.150769 3.150769-4.726154 4.726153-7.876923-31.507692-1.575385-92.947692-1.575385-130.756923 33.083077-18.904615 17.329231-29.932308 42.535385-29.932307 74.043077l17.32923-26.781538c1.575385-3.150769 6.301538-4.726154 9.452308-3.15077 0 0 37.809231 15.753846 75.618462 15.753847 39.384615 0 75.618462-15.753846 75.618461-15.753847 0 1.575385 1.575385 0 3.150769 0z" fill="#116FFF" p-id="2751"></path><path d="M623.852308 181.169231c-4.726154 0-7.876923-3.150769-7.876923-7.876923v-15.753846c0-4.726154 3.150769-7.876923 7.876923-7.876924s7.876923 3.150769 7.876923 7.876924v15.753846c0 3.150769-3.150769 7.876923-7.876923 7.876923zM403.298462 181.169231c-4.726154 0-7.876923-3.150769-7.876924-7.876923v-15.753846c0-4.726154 3.150769-7.876923 7.876924-7.876924s7.876923 3.150769 7.876923 7.876924v15.753846c0 3.150769-3.150769 7.876923-7.876923 7.876923zM482.067692 352.886154c-1.575385 0-4.726154-1.575385-6.301538-1.575385l-47.261539-47.261538c-3.150769-3.150769-3.150769-7.876923 0-11.027693 3.150769-3.150769 7.876923-3.150769 11.027693 0l42.535384 42.535385 26.781539-12.603077c3.150769-1.575385 6.301538-1.575385 9.452307 1.575385 3.150769 3.150769 3.150769 7.876923 0 11.027692l-1.575384 1.575385-31.507692 15.753846h-3.15077z" fill="#116FFF" p-id="2752"></path><path d="M545.083077 352.886154c-1.575385 0-3.150769 0-3.150769-1.575385l-31.507693-15.753846 6.301539-14.178461 26.781538 12.603076 42.535385-42.535384c3.150769-3.150769 7.876923-3.150769 11.027692 0s3.150769 7.876923 0 11.027692l-47.261538 47.261539c-1.575385 3.150769-3.150769 3.150769-4.726154 3.150769zM513.575385 368.64c-1.575385 0-4.726154 0-6.301539-1.575385l-15.753846-15.753846c-3.150769-3.150769-3.150769-7.876923 0-11.027692s7.876923-3.150769 11.027692 0l15.753846 15.753846c3.150769 3.150769 3.150769 7.876923 0 11.027692 0 1.575385-3.150769 1.575385-4.726153 1.575385z" fill="#116FFF" p-id="2753"></path><path d="M513.575385 368.64c-1.575385 0-4.726154 0-6.301539-1.575385-3.150769-3.150769-3.150769-7.876923 0-11.027692l15.753846-15.753846c3.150769-3.150769 7.876923-3.150769 11.027693 0s3.150769 7.876923 0 11.027692l-15.753847 15.753846c0 1.575385-3.150769 1.575385-4.726153 1.575385z" fill="#116FFF" p-id="2754"></path><path d="M497.821538 447.409231c-4.726154 0-7.876923-4.726154-7.876923-7.876923l7.876923-86.646154c0-4.726154 4.726154-7.876923 7.876924-7.876923 4.726154 0 7.876923 4.726154 7.876923 7.876923l-7.876923 88.221538c0 3.150769-3.150769 6.301538-7.876924 6.301539zM529.329231 447.409231c-4.726154 0-7.876923-3.150769-7.876923-7.876923l-7.876923-86.646154c0-4.726154 3.150769-7.876923 7.876923-7.876923s7.876923 3.150769 7.876923 7.876923l7.876923 86.646154c0 4.726154-3.150769 7.876923-7.876923 7.876923zM749.883077 604.947692h-3.150769c-4.726154-1.575385-6.301538-6.301538-4.726154-11.027692l56.713846-130.756923H225.28l59.864615 130.756923c1.575385 4.726154 0 7.876923-3.150769 11.027692s-7.876923 0-11.027692-3.150769l-64.590769-141.784615c-1.575385-3.150769-1.575385-4.726154 0-7.876923 1.575385-1.575385 4.726154-3.150769 6.301538-3.15077h598.646154c3.150769 0 4.726154 1.575385 6.301538 3.15077 1.575385 1.575385 1.575385 4.726154 0 7.876923l-61.44 141.784615c0 1.575385-3.150769 3.150769-6.301538 3.150769z" fill="#116FFF" p-id="2755"></path><path d="M702.621538 983.04c-4.726154 0-7.876923-3.150769-7.876923-7.876923V541.932308h-362.338461v433.230769c0 4.726154-3.150769 7.876923-7.876923 7.876923s-7.876923-3.150769-7.876923-7.876923v-441.107692c0-4.726154 3.150769-7.876923 7.876923-7.876923h378.092307c4.726154 0 7.876923 3.150769 7.876924 7.876923v441.107692c0 4.726154-4.726154 7.876923-7.876924 7.876923z" fill="#116FFF" p-id="2756"></path><path d="M734.129231 1014.547692h-441.107693c-4.726154 0-7.876923-3.150769-7.876923-7.876923v-31.507692c0-4.726154 3.150769-7.876923 7.876923-7.876923h441.107693c4.726154 0 7.876923 3.150769 7.876923 7.876923v31.507692c0 4.726154-4.726154 7.876923-7.876923 7.876923z m-433.230769-15.753846h425.353846v-15.753846h-425.353846v15.753846zM308.775385 604.947692h-29.932308c-4.726154 0-7.876923-3.150769-7.876923-7.876923s3.150769-7.876923 7.876923-7.876923h29.932308c4.726154 0 7.876923 3.150769 7.876923 7.876923s-4.726154 7.876923-7.876923 7.876923zM749.883077 604.947692h-33.083077c-4.726154 0-7.876923-3.150769-7.876923-7.876923s3.150769-7.876923 7.876923-7.876923h33.083077c4.726154 0 7.876923 3.150769 7.876923 7.876923s-3.150769 7.876923-7.876923 7.876923zM513.575385 604.947692c-4.726154 0-7.876923-3.150769-7.876923-7.876923v-31.507692c0-4.726154 3.150769-7.876923 7.876923-7.876923s7.876923 3.150769 7.876923 7.876923v31.507692c0 4.726154-4.726154 7.876923-7.876923 7.876923zM513.575385 951.532308c-4.726154 0-7.876923-3.150769-7.876923-7.876923v-94.523077c0-4.726154 3.150769-7.876923 7.876923-7.876923s7.876923 3.150769 7.876923 7.876923v94.523077c0 4.726154-4.726154 7.876923-7.876923 7.876923zM513.575385 825.501538c-56.713846 0-102.4-45.686154-102.4-102.4s45.686154-102.4 102.4-102.4 102.4 45.686154 102.4 102.4-47.261538 102.4-102.4 102.4z m0-189.046153c-47.261538 0-86.646154 39.384615-86.646154 86.646153s39.384615 86.646154 86.646154 86.646154 86.646154-39.384615 86.646153-86.646154-39.384615-86.646154-86.646153-86.646153z" fill="#116FFF" p-id="2757"></path><path d="M546.658462 779.815385c-1.575385 0-3.150769 0-3.15077-1.575385l-29.932307-15.753846-29.932308 15.753846c-3.150769 1.575385-6.301538 1.575385-7.876923 0-3.150769-1.575385-3.150769-4.726154-3.150769-7.876923l6.301538-34.658462-25.206154-23.630769c-1.575385-1.575385-3.150769-4.726154-1.575384-7.876923s3.150769-4.726154 6.301538-4.726154l34.658462-4.726154 15.753846-31.507692c3.150769-4.726154 11.027692-4.726154 14.178461 0l15.753846 31.507692 34.658462 4.726154c3.150769 0 4.726154 3.150769 6.301538 4.726154 1.575385 3.150769 0 6.301538-1.575384 7.876923l-25.206154 23.630769 6.301538 34.658462c0 3.150769 0 6.301538-3.150769 7.876923-6.301538 0-7.876923 1.575385-9.452307 1.575385z m-33.083077-34.658462c1.575385 0 3.150769 0 3.150769 1.575385l20.48 11.027692-3.150769-22.055385c0-3.150769 0-4.726154 1.575384-6.301538l15.753846-15.753846-22.055384-4.726154c-3.150769 0-4.726154-1.575385-6.301539-4.726154l-9.452307-20.48-9.452308 20.48c-1.575385 1.575385-3.150769 4.726154-6.301539 4.726154l-22.055384 3.150769 15.753846 15.753846c1.575385 1.575385 3.150769 4.726154 1.575385 6.301539l-3.15077 22.055384 20.48-11.027692c0 1.575385 1.575385 0 3.15077 0zM324.529231 1014.547692c-4.726154 0-7.876923-3.150769-7.876923-7.876923v-7.876923c0-4.726154 3.150769-7.876923 7.876923-7.876923s7.876923 3.150769 7.876923 7.876923v7.876923c0 4.726154-4.726154 7.876923-7.876923 7.876923zM356.036923 1014.547692c-4.726154 0-7.876923-3.150769-7.876923-7.876923v-7.876923c0-4.726154 3.150769-7.876923 7.876923-7.876923s7.876923 3.150769 7.876923 7.876923v7.876923c0 4.726154-4.726154 7.876923-7.876923 7.876923zM387.544615 1014.547692c-4.726154 0-7.876923-3.150769-7.876923-7.876923v-7.876923c0-4.726154 3.150769-7.876923 7.876923-7.876923s7.876923 3.150769 7.876923 7.876923v7.876923c0 4.726154-4.726154 7.876923-7.876923 7.876923zM419.052308 1014.547692c-4.726154 0-7.876923-3.150769-7.876923-7.876923v-7.876923c0-4.726154 3.150769-7.876923 7.876923-7.876923s7.876923 3.150769 7.876923 7.876923v7.876923c0 4.726154-4.726154 7.876923-7.876923 7.876923zM450.56 1014.547692c-4.726154 0-7.876923-3.150769-7.876923-7.876923v-7.876923c0-4.726154 3.150769-7.876923 7.876923-7.876923s7.876923 3.150769 7.876923 7.876923v7.876923c0 4.726154-4.726154 7.876923-7.876923 7.876923zM482.067692 1014.547692c-4.726154 0-7.876923-3.150769-7.876923-7.876923v-7.876923c0-4.726154 3.150769-7.876923 7.876923-7.876923s7.876923 3.150769 7.876923 7.876923v7.876923c0 4.726154-4.726154 7.876923-7.876923 7.876923zM513.575385 1014.547692c-4.726154 0-7.876923-3.150769-7.876923-7.876923v-7.876923c0-4.726154 3.150769-7.876923 7.876923-7.876923s7.876923 3.150769 7.876923 7.876923v7.876923c0 4.726154-4.726154 7.876923-7.876923 7.876923zM545.083077 1014.547692c-4.726154 0-7.876923-3.150769-7.876923-7.876923v-7.876923c0-4.726154 3.150769-7.876923 7.876923-7.876923s7.876923 3.150769 7.876923 7.876923v7.876923c0 4.726154-4.726154 7.876923-7.876923 7.876923zM576.590769 1014.547692c-4.726154 0-7.876923-3.150769-7.876923-7.876923v-7.876923c0-4.726154 3.150769-7.876923 7.876923-7.876923s7.876923 3.150769 7.876923 7.876923v7.876923c0 4.726154-4.726154 7.876923-7.876923 7.876923zM608.098462 1014.547692c-4.726154 0-7.876923-3.150769-7.876924-7.876923v-7.876923c0-4.726154 3.150769-7.876923 7.876924-7.876923s7.876923 3.150769 7.876923 7.876923v7.876923c0 4.726154-4.726154 7.876923-7.876923 7.876923zM639.606154 1014.547692c-4.726154 0-7.876923-3.150769-7.876923-7.876923v-7.876923c0-4.726154 3.150769-7.876923 7.876923-7.876923s7.876923 3.150769 7.876923 7.876923v7.876923c0 4.726154-4.726154 7.876923-7.876923 7.876923zM671.113846 1014.547692c-4.726154 0-7.876923-3.150769-7.876923-7.876923v-7.876923c0-4.726154 3.150769-7.876923 7.876923-7.876923s7.876923 3.150769 7.876923 7.876923v7.876923c0 4.726154-4.726154 7.876923-7.876923 7.876923zM702.621538 1014.547692c-4.726154 0-7.876923-3.150769-7.876923-7.876923v-7.876923c0-4.726154 3.150769-7.876923 7.876923-7.876923s7.876923 3.150769 7.876924 7.876923v7.876923c0 4.726154-4.726154 7.876923-7.876924 7.876923z" fill="#116FFF" p-id="2758"></path></svg>