<svg t="1624108330929" class="icon" viewBox="0 0 1056 1024" version="1.1" xmlns="http://www.w3.org/2000/svg" p-id="543" width="32" height="32"><path d="M379.904 188.633212C361.347879 196.545939 344.622545 205.668848 328.486788 216.312242c-15.825455 10.953697-31.030303 23.427879-44.435394 37.112242l0 0 0 0C269.746424 267.419152 257.551515 282.624 246.908121 298.449455l0 0c-10.953697 15.825455-20.386909 33.450667-27.67903 51.106909-5.802667 13.374061 0.620606 27.989333 13.684364 33.450667 12.784485 5.492364 27.989333-0.620606 33.481697-13.374061 6.081939-14.584242 13.994667-29.199515 23.117576-42.573576l0 0c9.122909-13.374061 19.176727-26.158545 30.440727-37.112242 11.543273-11.543273 24.017455-21.907394 37.422545-31.030303 13.684364-9.122909 27.67903-16.725333 42.294303-23.117576 13.405091-5.461333 19.48703-20.076606 14.025697-33.450667C408.203636 189.533091 392.998788 183.171879 379.904 188.633212L379.904 188.633212zM1041.718303 950.30303 1041.718303 950.30303l-185.31297-184.630303c30.130424-36.212364 54.458182-76.055273 72.73503-119.83903 23.117576-55.358061 35.312485-115.587879 35.312485-178.858667 0-62.060606-12.194909-121.669818-34.691879-176.128l-0.620606-2.141091c-23.148606-56.257939-57.188848-106.744242-99.203879-149.659152l-2.451394-2.141091c-42.604606-42.883879-94.332121-77.575758-151.552-101.282909l0 0 0 0C620.885333 12.815515 560.345212 0.341333 497.353697 0.341333c-128.713697 0-245.573818 52.317091-330.162424 136.595394C124.276364 179.820606 89.305212 231.517091 65.877333 288.705939 43.03903 343.753697 30.564848 403.704242 30.564848 466.97503c0 62.681212 12.474182 122.290424 34.381576 176.438303l0.899879 2.451394c23.427879 56.568242 58.39903 108.295758 101.313939 151.179636l0 0c43.225212 43.194182 94.952727 77.886061 151.552 101.282909l0.620606 0c54.768485 23.117576 115.029333 35.591758 177.989818 35.591758 63.581091 0 123.531636-12.474182 178.610424-35.591758 43.814788-17.625212 84.309333-42.604606 119.901091-72.393697l185.623273 185.561212c16.41503 16.41503 43.814788 16.41503 60.229818-0.620606C1058.474667 994.117818 1058.164364 967.028364 1041.718303 950.30303L1041.718303 950.30303zM767.255273 736.473212 767.255273 736.473212l0 0.310303-0.620606 0.620606c-34.971152 34.660848-76.675879 62.960485-123.221333 81.826909-44.745697 18.866424-94.021818 29.199515-146.090667 29.199515-51.727515 0-101.034667-10.333091-145.749333-29.199515l0 0c-46.855758-18.866424-88.560485-47.445333-123.531636-82.416485l-0.310303-0.310303 0.310303 0c-35.312485-34.971152-63.922424-77.265455-83.409455-123.810909l-0.620606-2.110061c-17.935515-43.814788-27.989333-92.470303-27.989333-143.577212 0-51.727515 10.053818-100.972606 28.578909-145.718303 19.48703-45.924848 48.065939-88.529455 83.409455-123.810909 68.763152-68.763152 164.305455-111.64703 269.28097-111.64703 52.037818 0 101.34497 10.333091 146.090667 28.889212 46.545455 18.866424 88.560485 47.445333 123.841939 82.757818l2.451394 1.830788c33.76097 34.971152 61.47103 76.055273 80.337455 121.980121l1.241212 2.141091c17.345939 43.814788 27.989333 92.780606 27.989333 143.577212 0 52.006788-10.643394 101.282909-29.199515 145.687273C831.177697 659.207758 802.567758 701.502061 767.255273 736.473212L767.255273 736.473212zM773.957818 441.406061 773.957818 441.406061c-13.994667 0-25.56897 11.543273-25.56897 25.537939 0 32.861091-6.081939 65.691152-18.866424 96.131879l-0.620606 1.210182c-12.474182 28.609939-29.820121 56.28897-54.178909 79.716848-23.738182 24.327758-51.727515 42.573576-81.237333 54.737455-30.409697 12.784485-62.991515 18.866424-96.162909 18.866424-14.30497 0-25.227636 11.543273-25.227636 25.848242s10.953697 25.848242 25.227636 25.848242c39.873939 0 78.81697-7.912727 115.929212-23.117576 35.902061-14.615273 69.383758-36.491636 97.993697-65.722182 28.609939-28.578909 50.20703-61.44 65.132606-96.721455l0-0.899879c15.794424-37.112242 23.738182-76.955152 23.738182-115.898182C800.147394 452.980364 788.262788 441.406061 773.957818 441.406061L773.957818 441.406061z" p-id="544"></path></svg>