<?xml version="1.0" standalone="no"?><!DOCTYPE svg PUBLIC "-//W3C//DTD SVG 1.1//EN" "http://www.w3.org/Graphics/SVG/1.1/DTD/svg11.dtd"><svg t="1616811369720" class="icon" viewBox="0 0 1211 1024" version="1.1" xmlns="http://www.w3.org/2000/svg" p-id="2969" xmlns:xlink="http://www.w3.org/1999/xlink" width="40.5234375" height="30"><defs><style type="text/css"></style></defs><path d="M512 438.613333m-401.066667 0a401.066667 401.066667 0 1 0 802.133334 0 401.066667 401.066667 0 1 0-802.133334 0Z" fill="#E9EAEB" p-id="2970"></path><path d="M281.6 259.413333h102.4v204.8h-102.4z" fill="#FFFFFF" p-id="2971"></path><path d="M401.066667 481.28h-136.533334v-238.933333h136.533334v238.933333z m-102.4-34.133333h68.266666v-170.666667h-68.266666v170.666667z" fill="#2A5082" p-id="2972"></path><path d="M878.933333 993.28h-682.666666V626.346667c153.6-131.413333 216.746667-213.333333 349.866666-349.866667h3.413334c131.413333 136.533333 211.626667 216.746667 331.093333 349.866667v366.933333z" fill="#FFFFFF" p-id="2973"></path><path d="M896 1010.346667h-716.8v-392.533334l5.12-5.12c109.226667-93.866667 174.08-162.133333 247.466667-242.346666 30.72-32.426667 63.146667-66.56 100.693333-105.813334l5.12-5.12h17.066667l18.773333 20.48C699.733333 409.6 776.533333 486.4 890.88 614.4l5.12 5.12v390.826667z m-682.666667-34.133334h648.533334V633.173333c-112.64-124.586667-187.733333-201.386667-312.32-329.386666l-3.413334-3.413334c-32.426667 34.133333-61.44 64.853333-88.746666 93.866667-73.386667 78.506667-138.24 146.773333-244.053334 240.64v341.333333z" fill="#2A5082" p-id="2974"></path><path d="M537.6 344.746667l341.333333 341.333333 68.266667-68.266667-409.6-409.6-409.6 409.6 68.266667 68.266667z" fill="#E9EAEB" p-id="2975"></path><path d="M878.933333 709.973333l-341.333333-341.333333-341.333333 341.333333-92.16-92.16 433.493333-433.493333 433.493333 433.493333-92.16 92.16z m-341.333333-389.12l341.333333 341.333334 44.373334-44.373334-385.706667-385.706666L151.893333 617.813333l44.373334 44.373334 341.333333-341.333334z" fill="#2A5082" p-id="2976"></path><path d="M298.666667 737.28h136.533333v256h-136.533333z" fill="#E9EAEB" p-id="2977"></path><path d="M452.266667 1010.346667h-170.666667v-290.133334h170.666667v290.133334z m-136.533334-34.133334h102.4v-221.866666h-102.4v221.866666z" fill="#2A5082" p-id="2978"></path><path d="M503.466667 737.28h153.6v136.533333h-153.6z" fill="#FFFFFF" p-id="2979"></path><path d="M674.133333 890.88h-187.733333v-170.666667h187.733333v170.666667z m-153.6-34.133333h119.466667v-102.4h-119.466667v102.4zM861.866667 976.213333h204.8v34.133334h-204.8zM145.066667 976.213333h34.133333v34.133334h-34.133333zM76.8 976.213333h34.133333v34.133334h-34.133333zM1083.733333 976.213333h51.2v34.133334h-51.2z" fill="#2A5082" p-id="2980"></path><path d="M875.52 993.28c8.533333-221.866667 208.213333-264.533333 208.213333-436.906667 0-131.413333-114.346667-237.226667-249.173333-220.16-116.053333 13.653333-199.68 121.173333-191.146667 237.226667 11.946667 158.72 199.68 213.333333 208.213334 419.84h23.893333z" fill="#A3D4FF" p-id="2981"></path><path d="M890.88 1010.346667h-58.026667v-17.066667c-3.413333-105.813333-58.026667-168.96-109.226666-230.4-47.786667-56.32-92.16-109.226667-98.986667-189.44-8.533333-124.586667 83.626667-238.933333 206.506667-256 68.266667-8.533333 136.533333 11.946667 187.733333 58.026667s81.92 110.933333 81.92 179.2c0 87.04-47.786667 143.36-97.28 201.386666-52.906667 61.44-107.52 124.586667-110.933333 235.52l-1.706667 18.773334z m-29.013333-658.773334c-8.533333 0-17.066667 0-27.306667 1.706667-105.813333 13.653333-184.32 110.933333-177.493333 218.453333 5.12 68.266667 46.08 117.76 90.453333 168.96 46.08 54.613333 97.28 114.346667 112.64 204.8 15.36-95.573333 68.266667-155.306667 114.346667-209.92 47.786667-56.32 88.746667-104.106667 88.746666-179.2 0-59.733333-25.6-114.346667-69.973333-153.6-34.133333-32.426667-80.213333-51.2-131.413333-51.2z" fill="#2A5082" p-id="2982"></path><path d="M930.133333 556.373333c0 37.546667-30.72 66.56-66.56 66.56-37.546667 0-66.56-30.72-66.56-66.56 0-37.546667 30.72-66.56 66.56-66.56 35.84 0 66.56 30.72 66.56 66.56z" fill="#FFFFFF" p-id="2983"></path><path d="M863.573333 641.706667c-46.08 0-83.626667-37.546667-83.626666-83.626667s37.546667-83.626667 83.626666-83.626667 83.626667 37.546667 83.626667 83.626667-37.546667 83.626667-83.626667 83.626667z m0-134.826667c-27.306667 0-49.493333 22.186667-49.493333 49.493333s22.186667 49.493333 49.493333 49.493334 49.493333-22.186667 49.493334-49.493334-22.186667-49.493333-49.493334-49.493333z" fill="#2A5082" p-id="2984"></path><path d="M554.666667 139.946667h-87.04v-17.066667c0-49.493333-35.84-58.026667-56.32-58.026667-20.48 0-39.253333 10.24-49.493334 27.306667l-5.12 10.24-11.946666-1.706667c-25.6-3.413333-39.253333 5.12-47.786667 27.306667l-3.413333 11.946667h-114.346667v-34.133334h90.453333c10.24-20.48 30.72-40.96 68.266667-39.253333 17.066667-22.186667 42.666667-34.133333 71.68-34.133333 49.493333 0 83.626667 29.013333 90.453333 75.093333h54.613334v32.426667zM844.8 208.213333h221.866667v34.133334h-221.866667zM776.533333 208.213333h34.133334v34.133334h-34.133334zM708.266667 208.213333h34.133333v34.133334h-34.133333zM110.933333 105.813333h34.133334v34.133334h-34.133334zM1134.933333 139.946667h-155.306666v-17.066667c0-25.6-34.133333-75.093333-76.8-75.093333-30.72 0-59.733333 20.48-71.68 51.2l-6.826667 17.066666-17.066667-6.826666c-5.12-1.706667-10.24-3.413333-15.36-3.413334-17.066667 0-32.426667 11.946667-37.546666 25.6l-3.413334 8.533334h-76.8v-34.133334h56.32c15.36-20.48 42.666667-39.253333 75.093334-34.133333C824.32 35.84 861.866667 11.946667 902.826667 11.946667c52.906667 0 98.986667 51.2 109.226666 92.16h122.88v35.84zM605.866667 105.813333h34.133333v34.133334h-34.133333z" fill="#BCC0C4" p-id="2985"></path></svg>