<svg t="1616989675638" class="icon" viewBox="0 0 1024 1024" version="1.1" xmlns="http://www.w3.org/2000/svg" p-id="5744" width="32" height="32"><path d="M542.379869 825.002061c6.179009 0 12.448304 0.141073 18.7571 0.457077 19.806686 1.015727 38.191353 9.660697 58.268899 18.734529 0 0 116.96666 56.688878 150.372808 116.379796 8.921473 15.929992 14.823978 38.654073 18.6781 63.398322H277.258072c3.854121-24.74425 9.756627-47.46833 18.678099-63.398322 33.434362-59.690917 150.406666-116.379796 150.406666-116.379796s25.568117-14.953765 60.249567-17.747016a463.374869 463.374869 0 0 1 35.793108-1.44459z" fill="#5D7EFD" p-id="5745"></path><path d="M532.854602 898.032866c-32.740282-0.304718-57.636891-49.906076-62.68167-60.746146 12.809452-12.753023 12.995669-55.26686 12.747379-68.234313h99.868582c-0.253932 12.967454-0.056429 55.475648 12.74738 68.234313-5.056066 10.834426-29.980889 60.44707-62.681671 60.746146" fill="#FFD4D1" p-id="5746"></path><path d="M585.971506 765.948795H479.737699s2.155599 59.950492-13.351173 70.4802c0 0 27.435927 64.37455 66.473719 64.701839 39.026506-0.32729 66.456791-64.707482 66.456791-64.707482-15.50113-10.524065-13.34553-70.474557-13.34553-70.474557m-6.331368 6.195937c-0.158002 16.121852 0.874654 51.503025 12.262087 65.68371-8.910187 18.847387-32.373491 56.886381-58.996836 57.106455-17.526942-0.141073-32.937784-16.251639-42.784698-29.743886-7.905745-10.834426-13.593819-21.79864-16.285497-27.40207 11.364862-14.197613 12.391875-49.539286 12.233873-65.644209H579.640138" fill="#FFD4D1" p-id="5747"></path><path d="M628.677203 759.775429c0 29.918817-44.353433 54.172131-99.072929 54.172131-54.713853 0-99.072928-24.253315-99.072928-54.172131 0-29.92446 44.353433-54.183417 99.072928-54.183417s99.072928 24.264601 99.072929 54.183417" fill="#F3A08A" p-id="5748"></path><path d="M425.796927 858.39128a525.464032 525.464032 0 0 1 21.883284-11.483363c0.282147-0.158002 8.137106-4.683632 20.726484-9.118976l64.447907 44.787938 64.442265-44.787938c12.583735 4.435343 20.44998 8.960973 20.523338 9.006117 0.282147 0.146716 9.006117 4.3902 22.092072 11.596222L532.860245 930.378142l-107.057675-71.986862z" fill="#F5FEFA" p-id="5749"></path><path d="M596.822861 834.352397L532.860245 878.801759l-63.973901-44.449362c-13.943681 4.75699-22.554793 9.76227-22.554793 9.762269s-10.676424 5.191496-26.4597 14.028325l112.988394 75.965128 112.982752-75.965128c-15.777633-8.842472-26.454058-14.022682-26.454058-14.022682s-8.611112-5.010922-22.560435-9.767912m0.936726 6.884375c11.398719 4.147554 18.441096 8.193535 18.508812 8.238678l0.203145 0.112859 0.208789 0.101572c0.079001 0.039501 6.794088 3.306757 17.273009 8.983545L532.860245 926.648165l-101.104383-67.974739a483.689418 483.689418 0 0 1 17.284296-8.983545l0.208788-0.107215 0.19186-0.112859c0.079001-0.039501 7.115735-4.085482 18.520097-8.227392l61.366868 42.649267 3.532474 2.449032 3.538117-2.449032 61.366868-42.649267" fill="#F5FEFA" p-id="5750"></path><path d="M683.306411 883.82961a5.332569 5.332569 0 0 1 6.923876 8.086319l-0.507864 0.434506-153.656993 115.634929a5.332569 5.332569 0 0 1-5.637288 0.485292l-0.65458-0.395005-158.938776-112.469245a5.332569 5.332569 0 0 1 5.586501-9.056904l0.569936 0.349862 155.767449 110.217716 150.553382-113.28747z" fill="#0A3293" opacity=".269" p-id="5751"></path><path d="M393.632224 612.585234c3.052825 31.402907-11.020643 58.466401-31.436765 60.452713-20.416122 1.986311-39.432797-21.866355-42.491265-53.269263-3.052825-31.40855 11.020643-58.477687 31.431122-60.458356 20.416122-1.986311 39.444083 21.860712 42.491266 53.269263M746.874022 623.837237c-6.506299 30.878115-28.05665 52.473609-48.12291 48.241411s-31.058689-32.689496-24.546747-63.56761c6.506299-30.872472 28.05665-52.473609 48.12291-48.235769 20.071903 4.232198 31.058689 32.689496 24.546747 63.561968" fill="#F4A994" p-id="5752"></path><path d="M532.431382 802.074835h-1.128586c-99.65415 0-180.449627-80.789834-180.449627-180.443984V447.456163h362.022197v174.169045c0 99.65415-80.789834 180.443984-180.443984 180.443984" fill="#FFDAD6" p-id="5753"></path><path d="M351.772967 585.183164s-20.935272-115.09885 0-167.420101h-20.935272s31.397265-68.008597 68.019883-88.932582c0 0-20.935272 0-26.160625 5.225353 0 0 62.783243-88.938225 209.273715-62.783243 0 0 62.783243 5.236639 99.405861 83.712872 0 0 78.476232 15.687346 57.552247 162.189104 0 0-26.166268 68.008597-26.166268 83.707229s-13.07467-65.39592-39.235295-70.632559c0 0-41.853614-47.078968-36.622618-83.712872 0 0-31.391622 20.935272-57.552247 15.698632l5.230997-10.461993s-78.476232 31.397265-125.555201 20.929629c0 0 20.923986-10.467636 26.154983-15.698632 0 0-52.32125 20.929629-68.01424 15.698632 0 0-20.929629 10.467636-31.391622 36.622618 0 0-15.692989 31.391622-26.154982 36.622618l-7.849316 39.235295z" fill="#313544" p-id="5754"></path><path d="M416.869812 525.701035c16.98522-6.6248 34.969239-7.759029 51.971388 0.248289 1.388161 0.65458 2.759393 1.365589 4.119339 2.144313a5.332569 5.332569 0 1 1-5.293068 9.254406 48.388128 48.388128 0 0 0-3.374473-1.749308c-13.943681-6.574014-29.03852-5.620359-43.552136 0.0395-2.567533 1.004442-4.886778 2.070955-6.906947 3.13747l-0.660223 0.355504-1.67595 0.959298a5.332569 5.332569 0 0 1-5.733217-8.989188c2.200743-1.410733 6.015364-3.413973 11.105287-5.400284zM596.856718 525.954967c17.002149-8.012961 34.986168-6.884375 51.982675-0.253932 5.089923 1.986311 8.898901 3.989552 11.105287 5.400284a5.332569 5.332569 0 0 1-5.151996 9.310835l-1.692879-0.970584a67.782879 67.782879 0 0 0-8.137105-3.803335c-14.507974-5.659859-29.608456-6.613514-43.55778-0.033857-1.128586 0.530435-2.251529 1.1173-3.363186 1.749308a5.332569 5.332569 0 1 1-5.287426-9.260049c1.354303-0.773081 2.719892-1.484091 4.10241-2.13867z" fill="#313544" p-id="5755"></path><path d="M463.508631 595.59437a17.024721 17.024721 0 1 1-34.055085 0 17.024721 17.024721 0 0 1 34.049442 0M634.782853 596.186878a17.030364 17.030364 0 1 1-34.060727 0 17.030364 17.030364 0 0 1 34.060727 0" fill="#303443" p-id="5756"></path><path d="M575.955304 706.099875a43.337705 43.337705 0 0 1-43.343348 43.337706 43.343348 43.343348 0 0 1-43.348991-43.337706" fill="#541137" p-id="5757"></path><path d="M591.433862 687.517706c0 17.098079-26.335556 30.962759-58.821906 30.962759-32.491993 0-58.821906-13.859037-58.821906-30.962759 0-17.098079 26.329913-30.962759 58.821906-30.962759 32.48635 0 58.821906 13.859037 58.821906 30.962759" fill="#FFFFFF" p-id="5758"></path><path d="M495.68462 550.360641H406.701251a26.65156 26.65156 0 0 0-26.65156 26.65156v13.678463a51.328095 51.328095 0 0 0 51.333738 51.328094h49.465927a41.492467 41.492467 0 0 0 41.492467-41.492467V577.017844a26.65156 26.65156 0 0 0-26.657203-26.651561z m-88.983369 10.665138h88.989012a15.986422 15.986422 0 0 1 15.986422 15.986422v23.51409a30.827329 30.827329 0 0 1-30.827329 30.827329h-49.465927a40.662956 40.662956 0 0 1-40.6686-40.662956v-13.678463a15.986422 15.986422 0 0 1 15.986422-15.986422zM667.805282 550.360641H578.821913a26.65156 26.65156 0 0 0-26.65156 26.65156v23.51409a41.492467 41.492467 0 0 0 41.492467 41.492467h49.465927a51.333737 51.333737 0 0 0 51.333738-51.328094v-13.678463a26.65156 26.65156 0 0 0-26.657203-26.65156z m-88.983369 10.665138h88.989012a15.986422 15.986422 0 0 1 15.986421 15.986422v13.678463a40.668599 40.668599 0 0 1-40.668599 40.662956h-49.465927a30.827329 30.827329 0 0 1-30.827329-30.827329V577.017844a15.986422 15.986422 0 0 1 15.986422-15.986422z" fill="#313544" p-id="5759"></path><path d="M557.508565 570.607475a5.332569 5.332569 0 0 1 0.620722 10.625638l-0.620722 0.0395H517.003611a5.332569 5.332569 0 0 1-0.620723-10.631281l0.620723-0.033857h40.504954zM405.629094 550.354998a5.332569 5.332569 0 0 1 0.620723 10.63128l-0.620723 0.033858h-49.494142a5.332569 5.332569 0 0 1-0.620722-10.625638l0.620722-0.0395h49.494142zM718.371581 550.354998a5.332569 5.332569 0 0 1 0.620722 10.63128l-0.620722 0.033858h-49.494143a5.332569 5.332569 0 0 1-0.620722-10.625638l0.620722-0.0395h49.494143z" fill="#313544" p-id="5760"></path><path d="M245.714091 291.118777L530.659502 352.722648c1.286588 0.276504 2.61832 0.276504 3.904908 0l286.186856-61.547442c8.58854-1.845238 10.016201-13.497889 2.127385-17.357653L534.310478 132.46779a9.254406 9.254406 0 0 0-8.204821 0.033858L243.530277 273.794981c-7.815459 3.904908-6.359583 15.472915 2.183814 17.323796" fill="#4F70EE" p-id="5761"></path><path d="M338.416151 404.005599s103.423628-68.877608 241.32556-11.483363c0 0 75.846627-57.394245 151.693253 11.47772l-24.529818-120.66278c-0.98187-12.256445-11.347933-22.577364-25.658404-25.562474l-27.503643-5.716289c-92.764132-19.304465-165.202429-18.170236-257.278124 3.289829l-8.735256 2.031454c-13.870323 3.233399-23.784951 13.396317-24.744249 25.353687l-24.569319 121.266573z" fill="#5F7BFF" p-id="5762"></path></svg>