<svg t="1621511936798" class="icon" viewBox="0 0 1024 1024" version="1.1" xmlns="http://www.w3.org/2000/svg" p-id="12719" width="25" height="25"><path d="M1024 512C1024 264.004267 794.7776 62.958933 512 62.958933S0 264.004267 0 512c0 128.597333 61.7472 244.497067 160.529067 326.3488a520.840533 520.840533 0 0 1-57.053867 60.7744c-21.7088 19.677867-9.710933 56.081067 19.438933 59.0336 17.117867 1.7408 34.5088 2.628267 52.087467 2.628267 99.857067 0 336.059733 0.256 336.9984 0.256h0.034133C794.794667 961.024 1024 759.995733 1024 512z m-512-51.2a51.2 51.2 0 1 1 0 102.4 51.2 51.2 0 0 1 0-102.4z m-274.1248 0a51.2 51.2 0 1 1 0 102.4 51.2 51.2 0 0 1 0-102.4z m548.2496 102.4a51.2 51.2 0 1 1 0-102.4 51.2 51.2 0 0 1 0 102.4z" fill="#1296db" p-id="12720"></path></svg>