<?xml version="1.0" standalone="no"?><!DOCTYPE svg PUBLIC "-//W3C//DTD SVG 1.1//EN" "http://www.w3.org/Graphics/SVG/1.1/DTD/svg11.dtd"><svg t="1616849978171" class="icon" viewBox="0 0 1024 1024" version="1.1" xmlns="http://www.w3.org/2000/svg" p-id="7877" width="32" height="32" xmlns:xlink="http://www.w3.org/1999/xlink"><defs><style type="text/css"></style></defs><path d="M226.199 202.542H717.75c105.037 0 189.067 54.616 189.067 121.837v310.9c0 63.014-84.03 117.638-189.067 117.638H419.46l-155.45 168.05-37.812-168.051c-105.028 0-189.058-54.624-189.058-117.638v-310.9c0.001-67.221 84.03-121.836 189.059-121.836" fill="#EBC95F" p-id="7878"></path><path d="M262.057 928.232l-38.662-171.829c-49.997-0.455-97.123-13.098-132.979-35.716-36.613-23.095-56.776-53.427-56.776-85.409v-310.9c0-33.792 20.153-65.422 56.745-89.065 36.199-23.39 84.432-36.271 135.814-36.271H717.75c51.386 0 99.622 12.881 135.822 36.271 36.593 23.643 56.745 55.274 56.745 89.066v310.9c0 31.982-20.164 62.314-56.777 85.409-36.526 23.04-84.751 35.729-135.79 35.729H420.99L262.057 928.232z m-35.858-722.19c-102.317 0-185.558 53.085-185.559 118.336v310.9c0 29.065 19.504 58.037 53.511 79.488 35.422 22.344 82.317 34.649 132.047 34.649h2.8L265.962 913.7 417.93 749.417h299.82c49.734 0 96.633-12.306 132.056-34.649 34.007-21.45 53.512-50.423 53.512-79.488v-310.9c0-65.251-83.245-118.337-185.567-118.337H226.199z" fill="#25221E" p-id="7879"></path><path d="M852.192 105.911c71.429 0 126.045 54.62 126.045 121.837 0 71.424-54.616 126.041-126.045 126.041-67.218 0-121.833-54.616-121.833-126.041 0-67.217 54.617-121.837 121.833-121.837" fill="#DA4A29" p-id="7880"></path><path d="M863.197 309.934h-20.993V183.011h-28.627V171.56c11.451 0 20.352-2.222 26.719-6.68 6.353-4.443 10.496-11.124 12.404-20.041h10.497v165.095z" fill="#FFFFFF" p-id="7881"></path><path d="M297.912 474.319m-41.96 0a41.96 41.96 0 1 0 83.92 0 41.96 41.96 0 1 0-83.92 0Z" p-id="7882"></path><path d="M461.647 474.32m-41.96 0a41.96 41.96 0 1 0 83.92 0 41.96 41.96 0 1 0-83.92 0Z" p-id="7883"></path><path d="M624.284 480.913m-41.96 0a41.96 41.96 0 1 0 83.92 0 41.96 41.96 0 1 0-83.92 0Z" p-id="7884"></path></svg>