<svg t="1621510562820" class="icon" viewBox="0 0 1024 1024" version="1.1" xmlns="http://www.w3.org/2000/svg" p-id="4312" width="25" height="25"><path d="M493.381818 217.832727l363.054546 342.574546c20.48 18.618182 59.578182 22.341818 85.643636-3.723637 35.374545-39.098182 18.618182-85.643636-1.861818-104.261818L528.756364 68.887273c-20.48-18.618182-52.130909-18.618182-72.610909 0L46.545455 452.421818c-20.48 18.618182-35.374545 59.578182-3.723637 96.814546 24.203636 27.927273 70.749091 22.341818 89.367273 3.723636l361.192727-335.127273z" fill="#8a8a8a" p-id="4313"></path><path d="M493.381818 612.538182l363.054546 342.574545c20.48 18.618182 59.578182 22.341818 85.643636-3.723636 35.374545-39.098182 18.618182-85.643636-1.861818-104.261818L528.756364 463.592727c-20.48-18.618182-52.130909-18.618182-72.610909 0L46.545455 847.127273c-20.48 18.618182-35.374545 59.578182-3.723637 96.814545 24.203636 27.927273 70.749091 22.341818 89.367273 3.723637l361.192727-335.127273z" fill="#8a8a8a" p-id="4314"></path></svg>