<svg t="1618400035079" class="icon" viewBox="0 0 1024 1024" version="1.1" xmlns="http://www.w3.org/2000/svg" p-id="2647" width="32" height="32"><path d="M225.792 571.093333H827.648c19.882667 0 29.269333-15.061333 20.778667-33.493333l-70.997334-154.538667c-8.533333-18.432-31.744-33.536-51.626666-33.536h-124.501334V123.178667a36.736 36.736 0 0 0-36.181333-37.034667h-72.448a36.736 36.736 0 0 0-36.224 37.034667v226.346666h-128.853333c-19.882667 0-43.093333 15.146667-51.626667 33.536L205.056 537.6c-8.533333 18.432 0.853333 33.493333 20.778667 33.493333M810.666667 625.962667H256c2.986667 57.130667 1.706667 125.866667-44.586667 166.698666-64.853333 57.088-43.008 119.594667 2.986667 144.341334h94.165333c9.301333-12.970667 60.330667-86.997333 75.349334-161.792 2.346667-15.530667 3.754667-25.770667 3.754666-25.770667a212.906667 212.906667 0 0 1-3.754666 25.770667c-7.168 47.573333-23.168 145.621333-34.858667 161.792H417.28c9.258667-12.970667 60.330667-86.997333 75.306667-161.792 2.346667-15.530667 3.797333-25.770667 3.797333-25.770667a220.16 220.16 0 0 1-3.797333 25.770667c-7.168 47.573333-23.168 145.621333-34.858667 161.792h85.888c9.258667-12.970667 60.330667-86.997333 75.306667-161.792 2.346667-15.530667 3.797333-25.770667 3.797333-25.770667a220.16 220.16 0 0 1-3.797333 25.770667c-7.168 47.573333-23.168 145.621333-34.858667 161.792h86.186667c9.301333-12.970667 60.373333-86.997333 75.349333-161.792 2.346667-15.530667 3.797333-25.770667 3.797333-25.770667a220.16 220.16 0 0 1-3.797333 25.770667c-7.168 47.573333-23.210667 145.621333-34.858667 161.792h86.741334s57.173333-21.034667 48.256-88.746667c-12.757333-96.64-17.834667-150.357333-34.986667-222.293333" p-id="2648" fill="#616060"></path></svg>