<svg t="1621320877285" class="icon" viewBox="0 0 1024 1024" version="1.1" xmlns="http://www.w3.org/2000/svg" p-id="7832" width="32" height="32"><path d="M350.464 99.584h519.552V901.12H350.464z" fill="#3D95E5" p-id="7833"></path><path d="M437.888 256h148.608v52.608H437.888zM437.888 440.32h148.608v53.632H437.888z" fill="#FFFFFF" p-id="7834"></path><path d="M227.328 621.056h47.488v148.608h-47.488zM227.328 420.992h47.488V569.6h-47.488z" fill="#454647" p-id="7835"></path><path d="M637.952 621.056h148.608v52.608H637.952z" fill="#FFFFFF" p-id="7836"></path><path d="M38.784 887.168v24.064H985.6v-24.064h-97.92V87.808H338.816V256H104.704v631.168H38.784z m300.032-609.28v609.28H129.792v-609.28h209.024zM862.592 111.872v775.296H360.704V111.872h501.888z m-476.288 25.6" fill="#454647" p-id="7837"></path><path d="M637.952 440.32h148.608v53.632H637.952zM437.888 621.056h148.608v52.608H437.888zM637.952 256h148.608v52.608H637.952z" fill="#FFFFFF" p-id="7838"></path></svg>