<svg t="1616990065104" class="icon" viewBox="0 0 1024 1024" version="1.1" xmlns="http://www.w3.org/2000/svg" p-id="16542" width="32" height="32"><path d="M187.28 104.3c19.02-22.73 48.09-36.64 77.75-37.05 162.98 0 325.96 0.01 488.94 0 16.35-0.33 32.78 3.17 47.49 10.32 29.38 13.94 51.39 42.34 57.34 74.34 2.59 12.53 1.85 25.37 1.95 38.08-0.03 26.12 0.06 52.24-0.05 78.35 24.86 17.34 47.38 38.48 64.13 63.87 18.27 27.29 29.43 59.79 29.43 92.78 0.6 29.15-7.56 58.15-21.75 83.51-12.41 22.26-29.28 41.87-48.59 58.43-36.62 31.45-81.27 52.42-127.58 65.18-33.62 44.29-76.56 82.24-126.98 106.26-29.6 14.08-61.66 23.2-94.36 25.96V909.5h93c7.08-0.06 14.09 3.35 18.37 9 4.71 5.97 6.11 14.34 3.7 21.55-2.24 7.06-8.12 12.83-15.21 14.96-4.15 1.33-8.55 0.95-12.83 0.99H395.02c-6.52 0.01-12.98-2.92-17.22-7.87-5.41-6.06-7.23-15.06-4.58-22.73 2.4-7.55 9.01-13.58 16.74-15.28 3.62-0.91 7.37-0.59 11.07-0.62h87.47c0.02-48.38-0.04-96.76 0.02-145.14-41.95-3.52-82.79-17.44-118.89-38.96-39.57-23.34-73.48-55.42-101.56-91.61-9.12-2.83-18.46-5.14-27.5-8.3-39.42-13.28-77.04-33.08-108.34-60.7-29.33-25.71-52.85-59.14-62.71-97.2-9.12-34.15-6.29-71.16 7.3-103.74 16.98-41.03 49-74.3 85.68-98.52 0.01-31.78-0.03-63.56 0.02-95.34 0.42-23.88 9.24-47.51 24.76-65.69m69.2 10.47c-21.53 3.91-39.95 20.99-45.41 42.18-2.75 9.45-1.97 19.36-2.07 29.07 0 42.66 0.01 85.32 0 127.99 0.22 4.67 0.68 9.34 0.77 14.03 3.77 75.71 22.24 151.19 57.67 218.43 17.34 32.83 38.83 63.62 64.83 90.19 25.98 26.79 56.73 49.31 91.17 63.95 32.77 14.06 68.89 20.32 104.48 17.64 38.06-2.72 75-15.87 107.23-36.11 31.6-19.74 58.86-45.92 81.77-75.19 26.47-33.95 47.01-72.3 62.38-112.45 15.64-41.05 25.84-84.12 30.97-127.74 2.19-17.85 3.1-35.83 4-53.78-0.04-47 0-94-0.02-141-0.12-14.96-6.01-29.93-16.64-40.54-10.47-10.99-25.45-17.46-40.62-17.69-163.33-0.01-326.67 0.01-490-0.01-3.53 0.02-7.05 0.37-10.51 1.03M132.72 357.75c-15.03 22.27-23.69 49.3-21.72 76.29 1.56 25.58 12.29 49.96 27.87 70.08 20.83 26.99 49.22 47.38 79.74 62.13-38.6-72.32-59.14-153.5-63.96-235.12-7.99 8.28-15.59 16.99-21.93 26.62m731.07-26.63c-4.52 81.72-25.28 163.03-63.99 235.36 27.21-13.44 52.86-30.88 72.91-53.86 20.16-22.72 34.38-51.83 35.04-82.59 0.63-17.64-3.13-35.33-10.33-51.41-7.93-17.87-19.82-33.76-33.63-47.5z" fill="#0C00BF" p-id="16543"></path><path d="M474.13 199.07c7.85-10.73 20.52-17.74 33.78-18.68 19.21-1.85 38.65 9.69 46.33 27.37 10.71 22.9 21.51 45.77 32.21 68.68 24.36 3.8 48.75 7.44 73.12 11.22 15.85 2.66 29.74 14.26 35.34 29.31 6.35 16.2 2.58 35.86-9.47 48.45-14.4 14.92-28.97 29.68-43.42 44.55-3.34 3.89-7.5 7.04-10.58 11.14 3.49 22.7 7.38 45.36 11 68.04 0.91 5.92 2.32 11.82 2.09 17.86 0.06 16-9.15 31.53-22.98 39.48-11.5 6.85-26.01 8.17-38.67 3.94-4.1-1.34-7.85-3.48-11.59-5.58-19.88-10.97-39.74-21.98-59.61-32.95-19.98 10.91-39.85 22.01-59.79 32.99-15.4 10.22-36.77 10.77-52.21 0.36-14.8-9.5-23.14-27.81-20.62-45.22 4.23-26.37 8.59-52.71 12.87-79.07-17.87-18.42-35.88-36.7-53.73-55.15-6.63-6.87-11.03-15.87-12.38-25.32-2.19-14.05 2.52-29.05 12.49-39.21 6.96-7.41 16.49-12.31 26.54-13.82 23.98-3.66 47.95-7.31 71.92-10.99 9.67-20.57 19.31-41.15 28.98-61.72 2.55-5.34 4.74-10.94 8.38-15.68m37.55 27.44c-3.79 9.61-8.67 18.76-12.9 28.19-10.04 21.42-20.15 42.8-30.11 64.26-32.11 4.94-64.22 9.81-96.33 14.73 23.19 23.85 46.5 47.58 69.65 71.46-5.56 33.58-10.96 67.18-16.47 100.77 28.71-15.89 57.42-31.79 86.16-47.62 28.65 15.92 57.37 31.7 86.03 47.61-5.42-33.61-10.97-67.2-16.41-100.81 23.17-23.84 46.43-47.6 69.63-71.41-19.24-2.94-38.48-5.88-57.73-8.81-12.85-2.15-25.9-3.63-38.64-6.16-14.14-29.96-28.15-59.98-42.27-89.95-0.15-0.57-0.45-1.69-0.61-2.26z" fill="#FC4E7F" p-id="16544"></path></svg>