<svg t="1616989913639" class="icon" viewBox="0 0 1024 1024" version="1.1" xmlns="http://www.w3.org/2000/svg" p-id="13510" width="32" height="32"><path d="M902.528 850.176V526.208c0-20.576-9.792-38.944-25.216-47.68l-257.024-106.24-2.528-1.376V117.12a53.376 53.376 0 0 0-21.504-42.688 53.408 53.408 0 0 0-47.104-8.192L146.944 188.224a52.896 52.896 0 0 0-37.76 50.912V850.24H96.64c-17.984 0-32.576 14.56-32.576 32.576v1.664a32.64 32.64 0 0 0 32.576 32.768h826.848a32.64 32.64 0 0 0 32.576-32.64v-1.664a32.576 32.576 0 0 0-32.576-32.64l-20.96-0.096z m-65.28-319.904v319.904h-219.488V448.96l219.52 81.28zM174.464 248.096L552.64 133.44v716.736H174.464V248.096z" fill="#32325A" p-id="13511"></path><path d="M449.472 437.504h-157.76a32.64 32.64 0 0 0-32.576 32.64v1.664a32.64 32.64 0 0 0 32.64 32.64h157.696a32.576 32.576 0 0 0 32.576-32.64v-1.664a32.576 32.576 0 0 0-32.576-32.64zM449.472 604.64h-157.76a32.64 32.64 0 0 0-32.576 32.576v1.76a32.64 32.64 0 0 0 32.576 32.576h157.76a32.576 32.576 0 0 0 32.576-32.64v-1.696a32.64 32.64 0 0 0-32.576-32.576z" fill="#FF4637" p-id="13512"></path><path d="M710.08 729.92h46.208a32.576 32.576 0 0 0 32.64-32.64v-1.6a32.64 32.64 0 0 0-32.64-32.64H710.08a32.64 32.64 0 0 0-32.576 32.64v1.664a32.576 32.576 0 0 0 32.576 32.64v-0.032z" fill="#32325A" p-id="13513"></path></svg>