<svg t="1616990139885" class="icon" viewBox="0 0 1024 1024" version="1.1" xmlns="http://www.w3.org/2000/svg" p-id="19630" width="32" height="32"><path d="M440.32 249.0368V442.88H202.24z" fill="#d4237a" p-id="19631"></path><path d="M50.4832 249.0368a194.9184 193.8432 0 1 0 389.8368 0 194.9184 193.8432 0 1 0-389.8368 0Z" fill="#d4237a" p-id="19632"></path><path d="M773.12 550.4h-174.08c-28.16 0-51.2 23.04-51.2 51.2v174.08c0 125.44 99.84 225.28 225.28 225.28 122.88 0 225.28-99.84 225.28-225.28s-99.84-225.28-225.28-225.28z m125.44 348.16c-33.28 33.28-79.36 51.2-125.44 51.2-48.64 0-92.16-17.92-125.44-51.2s-51.2-79.36-51.2-125.44v-179.2H773.12c48.64 0 92.16 17.92 125.44 53.76 33.28 33.28 51.2 79.36 51.2 125.44 0 48.64-17.92 92.16-51.2 125.44zM599.04 476.16h174.08c122.88 0 225.28-99.84 225.28-225.28S898.56 25.6 773.12 25.6c-122.88 0-225.28 99.84-225.28 225.28v174.08c0 28.16 23.04 51.2 51.2 51.2z m-5.12-227.84c0-48.64 17.92-92.16 51.2-125.44 35.84-33.28 81.92-51.2 128-51.2 48.64 0 92.16 17.92 125.44 53.76 33.28 33.28 51.2 79.36 51.2 125.44 0 48.64-17.92 92.16-51.2 125.44s-79.36 51.2-125.44 51.2h-179.2v-179.2zM424.96 547.84H250.88v2.56c-122.88 0-225.28 99.84-225.28 225.28 0 122.88 99.84 222.72 225.28 222.72 122.88 0 225.28-99.84 225.28-225.28v-174.08c0-28.16-23.04-51.2-51.2-51.2z m5.12 225.28c0 48.64-17.92 92.16-51.2 125.44s-79.36 51.2-125.44 51.2c-48.64 0-92.16-17.92-125.44-51.2S76.8 819.2 76.8 773.12c0-48.64 17.92-92.16 51.2-125.44C158.72 614.4 202.24 593.92 250.88 593.92h179.2v179.2zM250.88 25.6C125.44 25.6 25.6 125.44 25.6 250.88s99.84 225.28 225.28 225.28h174.08c28.16 0 51.2-23.04 51.2-51.2V250.88C473.6 125.44 373.76 25.6 250.88 25.6z m176.64 404.48h-179.2c-48.64 0-92.16-17.92-125.44-51.2S71.68 299.52 71.68 253.44c0-48.64 17.92-92.16 51.2-125.44 35.84-38.4 79.36-56.32 128-56.32s92.16 17.92 125.44 53.76C409.6 158.72 427.52 204.8 427.52 250.88v179.2z" fill="#d4237a" p-id="19633"></path></svg>