<?xml version="1.0" standalone="no"?><!DOCTYPE svg PUBLIC "-//W3C//DTD SVG 1.1//EN" "http://www.w3.org/Graphics/SVG/1.1/DTD/svg11.dtd"><svg t="1616852334306" class="icon" viewBox="0 0 1024 1024" version="1.1" xmlns="http://www.w3.org/2000/svg" p-id="14647" xmlns:xlink="http://www.w3.org/1999/xlink" width="32" height="32"><defs><style type="text/css"></style></defs><path d="M950.08 414.31l-40.67-34.42-95.67-81L701.6 204l-90.06-76.22-24.65-20.86c-1.74-1.47-3.47-3-5.21-4.41-11.45-9.62-23.34-16.68-37.68-21.29-20.66-6.65-45.12-6.6-65.67 0.45a110.86 110.86 0 0 0-36.33 20.9c-5.25 4.41-10.47 8.86-15.7 13.29l-78.65 66.57-110.73 93.68-103.16 87.31L76.33 412l-2.7 2.28c-9.18 7.77-10.63 22.85-6.28 33.16a30.44 30.44 0 0 0 27.75 18.7h799.67c10.81 0 21.63 0.13 32.44 0h1.4c15.89 0 31.1-14 30.36-30.36s-13.34-30.36-30.36-30.36H129c-10.81 0-21.64-0.2-32.45 0H95.1l21.47 51.82 38.17-32.3 90.36-76.48 108.54-91.86 91.71-77.6c13.37-11.32 26.89-22.48 40.12-34 1.81-1.57 3.72-1.75-2.76 2.07 0.8-0.48 1.58-1.14 2.35-1.66a73.54 73.54 0 0 1 11.29-6.17l-7.25 3.06a80.93 80.93 0 0 1 20.72-5.62l-8.07 1.08a85.79 85.79 0 0 1 20.13 0l-8.07-1.08a81 81 0 0 1 20.73 5.62l-7.26-3.06a73.17 73.17 0 0 1 11.3 6.17 14.64 14.64 0 0 0 2.34 1.66c-0.18-0.06-6.19-5.07-2.76-2.07 0.35 0.31 0.71 0.6 1.07 0.9l5.85 4.95 25 21.18 87 73.64 108.35 91.7 94.68 80.14c15.42 13 30.76 26.2 46.27 39.15l0.65 0.55c6.26 5.3 13 8.9 21.46 8.9 7.45 0 16.35-3.31 21.47-8.9 10.49-11.21 13.04-31.95 0.12-42.9zM107.73 947.63h776.56c10.56 0 21.13 0.15 31.69 0h1.35c15.88 0 31.1-14 30.36-30.36s-13.34-30.36-30.36-30.36H140.77c-10.56 0-21.13-0.14-31.69 0h-1.35c-15.88 0-31.09 14-30.36 30.36s13.34 30.36 30.36 30.36z" fill="#0071C3" p-id="14648"></path><path d="M612 886.85c0-12.17 0.16-24.35 0.16-36.52V466.14l60.88 0.06c0 11-0.16 21.92-0.16 32.86v387.85" fill="#FD9A16" p-id="14649"></path><path d="M867.23 907.46v-408.4c0-18.76 0.36-37.57 0-56.33v-0.79c0-15.88-14-31.1-30.36-30.36s-30.36 13.34-30.36 30.36v408.39c0 18.77-0.37 37.58 0 56.34v0.79c0 15.88 14 31.09 30.36 30.36s30.36-13.34 30.36-30.36z" fill="#0071C3" p-id="14650"></path><path d="M352 886.91c0-12.19 0.16-24.39 0.16-36.58V466.2H413c0 11-0.16 21.92-0.16 32.86v387.79" fill="#FD9A16" p-id="14651"></path><path d="M219.55 907.46v-408.4c0-18.76 0.36-37.57 0-56.33v-0.79c0-15.88-14-31.1-30.36-30.36s-30.36 13.34-30.36 30.36v408.39c0 18.77-0.37 37.58 0 56.34v0.79c0 15.88 14 31.09 30.36 30.36s30.36-13.34 30.36-30.36z" fill="#0071C3" p-id="14652"></path></svg>