<svg t="1619244953068" class="icon" viewBox="0 0 1024 1024" version="1.1" xmlns="http://www.w3.org/2000/svg" p-id="1403" width="32" height="32"><path d="M911.36 100.672c44.16 44.736 36.672 116.672-8.064 165.12l-149.44 149.44 103.872 282.88 1.28 4.48c13.888 50.56 10.688 83.2-27.392 121.344a215.552 215.552 0 0 1-13.312 12.48c-42.432 36.416-93.12 39.04-146.816-14.912l-146.368-179.648-95.872 97.728 24.96 111.936 0.768 5.952c1.024 6.592 1.664 10.752 2.048 14.4a55.36 55.36 0 0 1-1.92 21.888c-3.072 10.176-8.832 18.56-17.728 27.456-37.76 37.696-68.352 48.64-104.064 12.544l-112.896-142.976-144.512-114.176a58.304 58.304 0 0 1-17.984-28.544c-6.08-23.104 2.688-42.816 18.816-61.056 4.864-5.504 16.896-16.768 13.248-13.184a69.568 69.568 0 0 1 71.04-18.688l110.4 26.496L367.36 483.84 184.704 334.976c-51.456-51.52-48.896-102.208-12.48-144.64 3.84-4.48 6.848-7.68 12.48-13.312 38.144-38.08 70.72-41.28 121.408-27.328l7.168 2.112 282.816 105.408 149.248-149.312c46.592-46.528 122.944-53.312 166.08-7.232zM392.128 875.904c2.112-2.112 2.24-2.24 1.792-0.64-0.64 2.048-0.64 1.984-2.176-8.512-0.576-3.84-0.576-3.84-0.512-4.672l-32-142.464 170.432-173.632 22.592 27.712 166.784 204.928c25.856 25.92 38.976 25.28 57.6 9.216 2.944-2.432 5.184-4.608 9.728-9.216 18.432-18.368 19.392-28.288 10.944-59.136-0.64-2.176-0.64-2.176-0.384-1.92l-117.12-318.72 14.4-14.464 163.008-162.88c22.656-24.64 26.176-58.368 8.512-75.968l-0.832-0.96c-16.064-17.344-51.264-14.272-74.24 8.64L612.288 331.52l-19.2-7.232-299.392-111.744-4.48-1.216c-30.848-8.448-40.768-7.488-59.136 10.88a162.24 162.24 0 0 0-9.216 9.728c-16 18.688-16.704 31.808 6.784 55.488L462.08 478.72l-170.368 173.632-17.664-4.224-129.28-31.04c-5.184-1.472-6.336-1.152-9.6 2.112a207.872 207.872 0 0 0-10.56 10.304l-2.176 2.56 140.544 110.912 5.248 5.248 111.68 141.824c0.32-1.344 2.752-4.736 12.16-14.08z" p-id="1404" fill="#1296db"></path></svg>